<svg width="51" height="40" viewBox="0 0 51 40" fill="none" xmlns="http://www.w3.org/2000/svg">
<path fill-rule="evenodd" clip-rule="evenodd" d="M25.078 0C18.8861 0 13.8667 5.06628 13.8667 11.316V27.3965C13.8667 28.8768 12.678 30.0766 11.2114 30.0766C9.74486 30.0766 8.55604 28.8768 8.55604 27.3965V24.5276C8.55604 22.1649 6.64071 20.2496 4.27802 20.2496C1.91533 20.2496 0 22.165 0 24.5276V27.6943C0 33.944 5.0195 39.0103 11.2114 39.0103C17.4033 39.0103 22.4227 33.944 22.4227 27.6943V11.316C22.4227 9.83566 23.6114 8.63587 25.078 8.63587C26.5447 8.63587 27.7334 9.83566 27.7334 11.316V12.1624C27.7334 13.6603 28.5503 15.0389 29.8642 15.7582C31.0146 16.3881 32.397 16.4294 33.5831 15.8694L33.7422 15.7943C35.2974 15.06 36.2894 13.4946 36.2894 11.7748V11.316C36.2894 5.06628 31.27 0 25.078 0ZM30.563 21.7075C29.2423 21.0966 27.7334 22.0611 27.7334 23.5162V27.6943C27.7334 33.944 32.7528 39.0103 38.9447 39.0103C45.1367 39.0103 50.1561 33.944 50.1561 27.6943V24.8254C50.1561 22.4627 48.2408 20.5474 45.8781 20.5474C43.5154 20.5474 41.6001 22.4627 41.6001 24.8254V27.6943C41.6001 29.1746 40.4114 30.3744 38.9447 30.3744C37.4781 30.3744 36.2894 29.1746 36.2894 27.6943V24.5042C36.2894 22.479 34.3117 21.0443 32.3865 21.673L32.0183 21.7932C31.5398 21.9495 31.0198 21.9189 30.563 21.7075Z" fill="#FF5A1F"/>
</svg>
