<svg width="374" height="248" viewBox="0 0 374 248" fill="none" xmlns="http://www.w3.org/2000/svg">
<rect x="0.00512695" width="373.903" height="248" rx="16" fill="url(#paint0_linear_9_2082)"/>
<path d="M25.1301 209H29.8688V202.182H36.6529V198.364H29.8688V195.364H37.4029V191.545H25.1301V209ZM42.5804 209.205C44.285 209.205 45.5719 208.625 46.3645 207.159H46.4668V209H50.8645V200.034C50.8645 197.614 48.5719 195.739 44.8304 195.739C40.9185 195.739 38.9923 197.784 38.8304 200.17H43.16C43.2708 199.361 43.8673 198.977 44.7622 198.977C45.5804 198.977 46.16 199.352 46.16 200.034V200.068C46.16 200.827 45.3247 201.065 43.1259 201.227C40.4242 201.423 38.319 202.514 38.319 205.386C38.319 207.994 40.0747 209.205 42.5804 209.205ZM44.1145 206.239C43.3134 206.239 42.7509 205.847 42.7509 205.114C42.7509 204.44 43.2281 203.92 44.319 203.75C45.069 203.631 45.6997 203.477 46.194 203.273V204.364C46.194 205.557 45.1798 206.239 44.1145 206.239ZM65.0783 200.17C64.959 197.401 62.6578 195.739 58.8737 195.739C55.1323 195.739 52.8226 197.273 52.8396 200C52.8226 202.062 54.1607 203.384 56.8283 203.852L59.1465 204.261C60.1692 204.449 60.6294 204.722 60.6465 205.216C60.6294 205.761 60.0073 206.068 59.1465 206.068C58.0811 206.068 57.3311 205.608 57.2033 204.773H52.5328C52.7885 207.457 55.1067 209.239 59.1124 209.239C62.7345 209.239 65.4021 207.474 65.4192 204.67C65.4021 202.736 64.1067 201.611 61.4306 201.125L58.7715 200.648C57.7743 200.469 57.4931 200.111 57.5101 199.727C57.4931 199.182 58.1663 198.875 58.976 198.875C59.905 198.875 60.6806 199.369 60.7487 200.17H65.0783ZM75.0286 195.909H72.7786V192.773H68.074V195.909H66.4036V199.318H68.074V205.233C68.0399 207.977 69.736 209.366 72.9831 209.188C74.0485 209.128 74.8411 208.906 75.2672 208.778L74.5854 205.472C74.4064 205.514 73.9462 205.608 73.6649 205.608C73.0513 205.608 72.7786 205.335 72.7786 204.79V199.318H75.0286V195.909ZM91.0705 197H95.6046C95.5875 193.574 92.9455 191.307 88.7182 191.307C84.5676 191.307 81.6358 193.54 81.6614 196.864C81.6529 199.591 83.5449 201.108 86.6386 201.773L88.3773 202.148C90.3205 202.574 90.9852 203.06 91.0023 203.852C90.9852 204.713 90.2011 205.318 88.6841 205.318C86.8688 205.318 85.7949 204.466 85.7182 202.864H81.2182C81.2352 207.244 84.2011 209.205 88.7523 209.205C93.1756 209.205 95.8261 207.295 95.8432 203.852C95.8261 201.193 94.2409 199.327 90.3886 198.5L88.9568 198.193C87.3034 197.844 86.5619 197.358 86.6046 196.523C86.6131 195.756 87.2523 195.193 88.7182 195.193C90.2523 195.193 90.9767 195.866 91.0705 197ZM103.987 209.239C107.617 209.239 109.953 207.5 110.396 204.773H106.1C105.828 205.514 105.052 205.932 104.089 205.932C102.691 205.932 101.873 205.011 101.873 203.75V203.545H110.396V202.455C110.396 198.287 107.839 195.739 103.884 195.739C99.8276 195.739 97.2367 198.432 97.2367 202.489C97.2367 206.724 99.7935 209.239 103.987 209.239ZM101.873 200.955C101.899 199.821 102.836 199.045 103.987 199.045C105.154 199.045 106.041 199.83 106.066 200.955H101.873ZM115.963 209.205C117.668 209.205 118.955 208.625 119.747 207.159H119.85V209H124.247V200.034C124.247 197.614 121.955 195.739 118.213 195.739C114.301 195.739 112.375 197.784 112.213 200.17H116.543C116.654 199.361 117.25 198.977 118.145 198.977C118.963 198.977 119.543 199.352 119.543 200.034V200.068C119.543 200.827 118.708 201.065 116.509 201.227C113.807 201.423 111.702 202.514 111.702 205.386C111.702 207.994 113.458 209.205 115.963 209.205ZM117.497 206.239C116.696 206.239 116.134 205.847 116.134 205.114C116.134 204.44 116.611 203.92 117.702 203.75C118.452 203.631 119.083 203.477 119.577 203.273V204.364C119.577 205.557 118.563 206.239 117.497 206.239ZM137.924 209C143.242 209 146.617 205.727 146.617 200.273C146.617 194.818 143.242 191.545 137.856 191.545H131.208V209H137.924ZM135.947 204.977V195.568H137.617C140.345 195.568 141.845 196.625 141.845 200.273C141.845 203.92 140.345 204.977 137.754 204.977H135.947ZM155.151 209.239C158.781 209.239 161.117 207.5 161.56 204.773H157.264C156.992 205.514 156.216 205.932 155.253 205.932C153.855 205.932 153.037 205.011 153.037 203.75V203.545H161.56V202.455C161.56 198.287 159.003 195.739 155.048 195.739C150.992 195.739 148.401 198.432 148.401 202.489C148.401 206.724 150.958 209.239 155.151 209.239ZM153.037 200.955C153.063 199.821 154 199.045 155.151 199.045C156.318 199.045 157.205 199.83 157.23 200.955H153.037ZM168.184 191.545H163.48V209H168.184V191.545ZM170.581 209H175.286V195.909H170.581V209ZM172.933 194.545C174.212 194.545 175.252 193.582 175.252 192.398C175.252 191.213 174.212 190.25 172.933 190.25C171.655 190.25 170.615 191.213 170.615 192.398C170.615 193.582 171.655 194.545 172.933 194.545ZM190.876 195.909H185.933L183.819 204.568H183.683L181.569 195.909H176.626L181.024 209H186.478L190.876 195.909ZM198.088 209.239C201.719 209.239 204.054 207.5 204.497 204.773H200.202C199.929 205.514 199.154 205.932 198.19 205.932C196.793 205.932 195.975 205.011 195.975 203.75V203.545H204.497V202.455C204.497 198.287 201.94 195.739 197.986 195.739C193.929 195.739 191.338 198.432 191.338 202.489C191.338 206.724 193.895 209.239 198.088 209.239ZM195.975 200.955C196 199.821 196.938 199.045 198.088 199.045C199.256 199.045 200.142 199.83 200.168 200.955H195.975ZM206.417 209H211.122V202.182C211.122 200.682 212.153 199.693 213.542 199.693C214.028 199.693 214.812 199.77 215.281 199.932V195.918C214.906 195.807 214.497 195.739 214.088 195.739C212.69 195.739 211.599 196.557 211.122 198.398H210.985V195.909H206.417V209ZM220.085 213.909C223.375 213.909 224.918 212.256 225.642 210.091L230.415 195.909H225.472L223.324 204.977H223.188L221.074 195.909H216.165L220.767 209.58L220.665 209.818C220.35 210.543 219.438 210.517 218.279 210.108L217.256 213.449C217.989 213.739 219.003 213.909 220.085 213.909Z" fill="#FFF8F1"/>
<path d="M27.4455 218.818H24.3233L27.6841 229H31.4625L34.8233 218.818H31.7012L29.6131 225.997H29.5335L27.4455 218.818ZM38.552 229.139C41.0378 229.139 42.5094 227.548 42.5094 225.202C42.5094 222.855 41.0378 221.264 38.552 221.264C36.0662 221.264 34.5946 222.855 34.5946 225.202C34.5946 227.548 36.0662 229.139 38.552 229.139ZM38.5719 227.111C37.8361 227.111 37.3986 226.38 37.3986 225.182C37.3986 223.984 37.8361 223.253 38.5719 223.253C39.2679 223.253 39.7054 223.984 39.7054 225.182C39.7054 226.38 39.2679 227.111 38.5719 227.111ZM46.3673 218.818H43.623V229H46.3673V218.818ZM52.7173 225.659C52.7223 226.415 52.2848 226.872 51.6037 226.872C50.9126 226.872 50.5149 226.415 50.5099 225.659V221.364H47.7656V226.236C47.7706 227.906 48.8246 229.099 50.4304 229.099C51.5689 229.099 52.4439 228.523 52.777 227.548H52.8565V229H55.4616V221.364H52.7173V225.659ZM61.4114 221.364H60.0989V219.534H57.3546V221.364H56.3801V223.352H57.3546V226.803C57.3347 228.403 58.324 229.214 60.2182 229.109C60.8396 229.075 61.302 228.945 61.5506 228.871L61.1529 226.942C61.0485 226.967 60.78 227.021 60.6159 227.021C60.258 227.021 60.0989 226.862 60.0989 226.544V223.352H61.4114V221.364ZM62.5312 231.864H65.2755V227.747H65.3153C65.6335 228.523 66.3693 229.099 67.4432 229.099C69.0738 229.099 70.446 227.827 70.446 225.182C70.446 222.418 68.9744 221.264 67.463 221.264C66.3295 221.264 65.6136 221.92 65.3153 222.696H65.2557V221.364H62.5312V231.864ZM65.2159 225.182C65.2159 224.048 65.6733 223.372 66.429 223.372C67.1846 223.372 67.6221 224.048 67.6221 225.182C67.6221 226.315 67.1846 226.991 66.429 226.991C65.6733 226.991 65.2159 226.295 65.2159 225.182ZM73.7235 229.119C74.7178 229.119 75.4686 228.781 75.9309 227.926H75.9906V229H78.5559V223.77C78.5559 222.358 77.2186 221.264 75.036 221.264C72.7541 221.264 71.6305 222.457 71.536 223.849H74.0616C74.1262 223.377 74.4742 223.153 74.9962 223.153C75.4735 223.153 75.8116 223.372 75.8116 223.77V223.79C75.8116 224.232 75.3244 224.371 74.0417 224.466C72.4657 224.58 71.2377 225.217 71.2377 226.892C71.2377 228.413 72.2619 229.119 73.7235 229.119ZM74.6184 227.389C74.1511 227.389 73.823 227.161 73.823 226.733C73.823 226.34 74.1014 226.037 74.7377 225.938C75.1752 225.868 75.5431 225.778 75.8315 225.659V226.295C75.8315 226.991 75.2399 227.389 74.6184 227.389ZM84.4211 221.364H83.1086V219.534H80.3643V221.364H79.3899V223.352H80.3643V226.803C80.3444 228.403 81.3338 229.214 83.228 229.109C83.8494 229.075 84.3118 228.945 84.5603 228.871L84.1626 226.942C84.0582 226.967 83.7898 227.021 83.6257 227.021C83.2677 227.021 83.1086 226.862 83.1086 226.544V223.352H84.4211V221.364ZM91.9891 229.139C94.107 229.139 95.4693 228.125 95.7278 226.534H93.2221C93.063 226.967 92.6106 227.21 92.0488 227.21C91.2335 227.21 90.7562 226.673 90.7562 225.938V225.818H95.7278V225.182C95.7278 222.751 94.2363 221.264 91.9295 221.264C89.563 221.264 88.0516 222.835 88.0516 225.202C88.0516 227.673 89.5431 229.139 91.9891 229.139ZM90.7562 224.307C90.7711 223.646 91.318 223.193 91.9891 223.193C92.6703 223.193 93.1873 223.651 93.2022 224.307H90.7562ZM99.592 224.705C99.5969 223.949 100.024 223.491 100.706 223.491C101.397 223.491 101.804 223.949 101.799 224.705V229H104.544V224.128C104.549 222.467 103.5 221.264 101.879 221.264C100.755 221.264 99.8654 221.851 99.5323 222.815H99.4527V221.364H96.8476V229H99.592V224.705ZM105.898 229H108.643V221.364H105.898V229ZM107.271 220.568C108.016 220.568 108.623 220.006 108.623 219.315C108.623 218.624 108.016 218.062 107.271 218.062C106.525 218.062 105.918 218.624 105.918 219.315C105.918 220.006 106.525 220.568 107.271 220.568ZM110.041 229H112.785V224.545C112.785 223.879 113.133 223.472 113.7 223.472C114.267 223.472 114.635 223.879 114.635 224.545V229H117.26V224.545C117.26 223.879 117.608 223.472 118.175 223.472C118.741 223.472 119.109 223.879 119.109 224.545V229H121.853V223.849C121.853 222.283 120.849 221.264 119.388 221.264C118.254 221.264 117.339 221.881 117.081 222.815H117.001C116.842 221.881 115.987 221.264 114.913 221.264C113.854 221.264 113.044 221.861 112.726 222.815H112.646V221.364H110.041V229ZM132.976 223.849C132.907 222.234 131.564 221.264 129.357 221.264C127.174 221.264 125.827 222.159 125.837 223.75C125.827 224.953 126.608 225.724 128.164 225.997L129.516 226.236C130.113 226.345 130.381 226.504 130.391 226.793C130.381 227.111 130.018 227.29 129.516 227.29C128.895 227.29 128.457 227.021 128.382 226.534H125.658C125.807 228.1 127.159 229.139 129.496 229.139C131.609 229.139 133.165 228.11 133.175 226.474C133.165 225.346 132.409 224.69 130.848 224.406L129.297 224.128C128.716 224.023 128.551 223.815 128.561 223.591C128.551 223.273 128.944 223.094 129.417 223.094C129.958 223.094 130.411 223.382 130.451 223.849H132.976ZM137.886 229.139C140.004 229.139 141.366 228.125 141.624 226.534H139.119C138.959 226.967 138.507 227.21 137.945 227.21C137.13 227.21 136.653 226.673 136.653 225.938V225.818H141.624V225.182C141.624 222.751 140.133 221.264 137.826 221.264C135.459 221.264 133.948 222.835 133.948 225.202C133.948 227.673 135.44 229.139 137.886 229.139ZM136.653 224.307C136.668 223.646 137.214 223.193 137.886 223.193C138.567 223.193 139.084 223.651 139.099 224.307H136.653ZM145.508 229.099C146.582 229.099 147.318 228.523 147.636 227.747H147.696V229H150.42V218.818H147.676V222.696H147.636C147.338 221.92 146.622 221.264 145.488 221.264C143.977 221.264 142.505 222.418 142.505 225.182C142.505 227.827 143.878 229.099 145.508 229.099ZM146.523 226.991C145.767 226.991 145.329 226.315 145.329 225.182C145.329 224.048 145.767 223.372 146.523 223.372C147.278 223.372 147.736 224.048 147.736 225.182C147.736 226.295 147.278 226.991 146.523 226.991ZM159.508 225.659C159.513 226.415 159.076 226.872 158.395 226.872C157.704 226.872 157.306 226.415 157.301 225.659V221.364H154.557V226.236C154.562 227.906 155.616 229.099 157.221 229.099C158.36 229.099 159.235 228.523 159.568 227.548H159.648V229H162.253V221.364H159.508V225.659ZM163.648 229H166.393V225.023C166.393 224.148 166.994 223.571 167.805 223.571C168.088 223.571 168.545 223.616 168.819 223.71V221.369C168.6 221.304 168.361 221.264 168.123 221.264C167.308 221.264 166.671 221.741 166.393 222.815H166.313V221.364H163.648V229ZM172.463 224.705C172.468 223.949 172.896 223.491 173.577 223.491C174.268 223.491 174.675 223.949 174.67 224.705V229H177.415V224.128C177.42 222.467 176.371 221.264 174.75 221.264C173.626 221.264 172.736 221.851 172.403 222.815H172.324V221.364H169.719V229H172.463V224.705ZM180.897 229.119C181.892 229.119 182.642 228.781 183.105 227.926H183.164V229H185.73V223.77C185.73 222.358 184.392 221.264 182.21 221.264C179.928 221.264 178.804 222.457 178.71 223.849H181.235C181.3 223.377 181.648 223.153 182.17 223.153C182.647 223.153 182.985 223.372 182.985 223.77V223.79C182.985 224.232 182.498 224.371 181.216 224.466C179.64 224.58 178.412 225.217 178.412 226.892C178.412 228.413 179.436 229.119 180.897 229.119ZM181.792 227.389C181.325 227.389 180.997 227.161 180.997 226.733C180.997 226.34 181.275 226.037 181.912 225.938C182.349 225.868 182.717 225.778 183.005 225.659V226.295C183.005 226.991 182.414 227.389 181.792 227.389ZM192.574 224.705C192.579 223.949 193.007 223.491 193.688 223.491C194.379 223.491 194.787 223.949 194.782 224.705V229H197.526V224.128C197.531 222.467 196.482 221.264 194.861 221.264C193.738 221.264 192.848 221.851 192.515 222.815H192.435V221.364H189.83V229H192.574V224.705ZM201.009 229.119C202.003 229.119 202.754 228.781 203.216 227.926H203.276V229H205.841V223.77C205.841 222.358 204.504 221.264 202.321 221.264C200.039 221.264 198.916 222.457 198.821 223.849H201.347C201.411 223.377 201.759 223.153 202.281 223.153C202.759 223.153 203.097 223.372 203.097 223.77V223.79C203.097 224.232 202.61 224.371 201.327 224.466C199.751 224.58 198.523 225.217 198.523 226.892C198.523 228.413 199.547 229.119 201.009 229.119ZM201.904 227.389C201.436 227.389 201.108 227.161 201.108 226.733C201.108 226.34 201.387 226.037 202.023 225.938C202.46 225.868 202.828 225.778 203.117 225.659V226.295C203.117 226.991 202.525 227.389 201.904 227.389ZM207.152 229H209.897V224.545C209.897 223.879 210.245 223.472 210.811 223.472C211.378 223.472 211.746 223.879 211.746 224.545V229H214.371V224.545C214.371 223.879 214.719 223.472 215.286 223.472C215.853 223.472 216.221 223.879 216.221 224.545V229H218.965V223.849C218.965 222.283 217.961 221.264 216.499 221.264C215.365 221.264 214.451 221.881 214.192 222.815H214.113C213.953 221.881 213.098 221.264 212.024 221.264C210.966 221.264 210.155 221.861 209.837 222.815H209.757V221.364H207.152V229ZM225.235 229.119C226.23 229.119 226.98 228.781 227.443 227.926H227.502V229H230.068V223.77C230.068 222.358 228.73 221.264 226.548 221.264C224.266 221.264 223.142 222.457 223.048 223.849H225.573C225.638 223.377 225.986 223.153 226.508 223.153C226.985 223.153 227.323 223.372 227.323 223.77V223.79C227.323 224.232 226.836 224.371 225.553 224.466C223.977 224.58 222.749 225.217 222.749 226.892C222.749 228.413 223.774 229.119 225.235 229.119ZM226.13 227.389C225.663 227.389 225.335 227.161 225.335 226.733C225.335 226.34 225.613 226.037 226.249 225.938C226.687 225.868 227.055 225.778 227.343 225.659V226.295C227.343 226.991 226.752 227.389 226.13 227.389ZM235.058 229.139C237.32 229.139 238.707 227.842 238.737 225.818H236.191C236.132 226.619 235.699 227.051 235.098 227.051C234.377 227.051 233.904 226.435 233.904 225.182C233.904 223.929 234.377 223.312 235.098 223.312C235.704 223.312 236.117 223.745 236.191 224.545H238.737C238.722 222.557 237.305 221.264 235.058 221.264C232.572 221.264 231.1 222.855 231.1 225.202C231.1 227.548 232.572 229.139 235.058 229.139ZM244.786 229.119C245.78 229.119 246.531 228.781 246.993 227.926H247.053V229H249.618V223.77C249.618 222.358 248.281 221.264 246.099 221.264C243.817 221.264 242.693 222.457 242.599 223.849H245.124C245.189 223.377 245.537 223.153 246.059 223.153C246.536 223.153 246.874 223.372 246.874 223.77V223.79C246.874 224.232 246.387 224.371 245.104 224.466C243.528 224.58 242.3 225.217 242.3 226.892C242.3 228.413 243.324 229.119 244.786 229.119ZM245.681 227.389C245.214 227.389 244.885 227.161 244.885 226.733C244.885 226.34 245.164 226.037 245.8 225.938C246.238 225.868 246.606 225.778 246.894 225.659V226.295C246.894 226.991 246.302 227.389 245.681 227.389ZM253.674 224.705C253.679 223.949 254.107 223.491 254.788 223.491C255.479 223.491 255.886 223.949 255.881 224.705V229H258.626V224.128C258.631 222.467 257.582 221.264 255.961 221.264C254.837 221.264 253.947 221.851 253.614 222.815H253.535V221.364H250.93V229H253.674V224.705ZM264.534 221.364H263.222V219.534H260.478V221.364H259.503V223.352H260.478V226.803C260.458 228.403 261.447 229.214 263.341 229.109C263.963 229.075 264.425 228.945 264.674 228.871L264.276 226.942C264.171 226.967 263.903 227.021 263.739 227.021C263.381 227.021 263.222 226.862 263.222 226.544V223.352H264.534V221.364ZM269.231 229.139C271.349 229.139 272.711 228.125 272.97 226.534H270.464C270.305 226.967 269.853 227.21 269.291 227.21C268.476 227.21 267.998 226.673 267.998 225.938V225.818H272.97V225.182C272.97 222.751 271.478 221.264 269.172 221.264C266.805 221.264 265.294 222.835 265.294 225.202C265.294 227.673 266.785 229.139 269.231 229.139ZM267.998 224.307C268.013 223.646 268.56 223.193 269.231 223.193C269.912 223.193 270.429 223.651 270.444 224.307H267.998ZM275.581 229.159C276.312 229.159 276.963 228.543 276.973 227.767C276.963 227.011 276.312 226.395 275.581 226.395C274.811 226.395 274.179 227.011 274.189 227.767C274.179 228.543 274.811 229.159 275.581 229.159Z" fill="#FCD9BD"/>
<defs>
<linearGradient id="paint0_linear_9_2082" x1="194.997" y1="248" x2="194.997" y2="-1.54062e-07" gradientUnits="userSpaceOnUse">
<stop stop-color="#FE965E" stop-opacity="0.8"/>
<stop offset="1" stop-color="#C11717" stop-opacity="0.3"/>
</linearGradient>
</defs>
</svg>
