<svg width="136" height="64" viewBox="0 0 136 64" fill="none" xmlns="http://www.w3.org/2000/svg">
<rect x="0.533936" y="0.410156" width="134.746" height="63.4883" rx="4.78546" fill="#DF2320"/>
<path d="M76.924 25.6001C76.6593 25.6001 76.3826 25.5158 76.1179 25.4557C75.5819 25.3376 75.0551 25.1807 74.5418 24.9864C73.9836 24.7834 73.3701 24.7939 72.8192 25.0161C72.2684 25.2382 71.8191 25.6562 71.5579 26.1896L71.2932 26.731C70.1213 26.0791 69.0445 25.2695 68.0928 24.3247C67.148 23.373 66.3384 22.2962 65.6865 21.1243L66.1918 20.7874C66.7252 20.5262 67.1432 20.077 67.3654 19.5261C67.5875 18.9752 67.598 18.3617 67.395 17.8035C67.2039 17.2891 67.0472 16.7626 66.9257 16.2274C66.8656 15.9627 66.8174 15.686 66.7813 15.4092C66.6352 14.5617 66.1913 13.7943 65.5296 13.245C64.8678 12.6958 64.0317 12.4008 63.1718 12.4133H59.5623C59.0438 12.4085 58.5303 12.5154 58.0568 12.7268C57.5833 12.9382 57.1609 13.2492 56.8184 13.6385C56.4759 14.0278 56.2213 14.4864 56.0719 14.983C55.9226 15.4795 55.8819 16.0025 55.9528 16.5161C56.5938 21.5567 58.8958 26.24 62.4952 29.8263C66.0947 33.4127 70.7863 35.6977 75.8292 36.3203H76.2864C77.1736 36.3216 78.0302 35.9961 78.6927 35.4059C79.0733 35.0654 79.3774 34.6481 79.5848 34.1814C79.7922 33.7148 79.8982 33.2094 79.8959 32.6987V29.0892C79.8811 28.2535 79.5768 27.4488 79.0348 26.8125C78.4928 26.1761 77.7468 25.7476 76.924 25.6001ZM77.5256 32.8191C77.5254 32.9899 77.4888 33.1587 77.4183 33.3143C77.3477 33.4699 77.2449 33.6087 77.1165 33.7214C76.9821 33.8375 76.8249 33.9242 76.655 33.976C76.4851 34.0278 76.3063 34.0436 76.13 34.0222C71.624 33.4445 67.4386 31.3831 64.2339 28.1632C61.0292 24.9432 58.9877 20.7481 58.4314 16.2394C58.4122 16.0632 58.429 15.8849 58.4807 15.7153C58.5324 15.5457 58.6179 15.3884 58.7322 15.2528C58.8449 15.1245 58.9837 15.0216 59.1393 14.9511C59.2949 14.8806 59.4637 14.844 59.6345 14.8437H63.244C63.5238 14.8375 63.797 14.929 64.0166 15.1025C64.2362 15.276 64.3885 15.5206 64.4472 15.7942C64.4953 16.1231 64.5555 16.448 64.6277 16.7688C64.7667 17.4031 64.9516 18.0263 65.1811 18.6337L63.4967 19.4158C63.3527 19.4819 63.2231 19.5757 63.1155 19.692C63.0078 19.8083 62.9242 19.9447 62.8694 20.0934C62.8147 20.2421 62.7898 20.4001 62.7963 20.5585C62.8027 20.7168 62.8404 20.8723 62.9071 21.016C64.6387 24.7251 67.6202 27.7066 71.3293 29.4382C71.6222 29.5585 71.9508 29.5585 72.2437 29.4382C72.3938 29.3845 72.5317 29.3015 72.6494 29.1941C72.7671 29.0867 72.8623 28.957 72.9295 28.8125L73.6755 27.1281C74.2975 27.3505 74.9323 27.5353 75.5765 27.6815C75.8973 27.7537 76.2222 27.8139 76.5511 27.862C76.8247 27.9207 77.0693 28.073 77.2428 28.2926C77.4163 28.5122 77.5078 28.7854 77.5016 29.0652L77.5256 32.8191Z" fill="white"/>
<path d="M41.7639 53.0391C43.2996 53.0391 44.2269 51.8702 44.2299 49.8574C44.2329 47.8596 43.2936 46.7145 41.7639 46.7145C40.2312 46.7145 39.3009 47.8566 39.2979 49.8574C39.2919 51.8642 40.2252 53.0361 41.7639 53.0391ZM41.7639 51.9686C41.0631 51.9686 40.6099 51.2649 40.6129 49.8574C40.6159 48.4709 41.0661 47.7731 41.7639 47.7731C42.4587 47.7731 42.9119 48.4709 42.9119 49.8574C42.9149 51.2649 42.4616 51.9686 41.7639 51.9686ZM47.8074 46.798H46.5938L45.082 47.7552V48.9002L46.4805 48.0236H46.5163V52.9049H47.8074V46.798ZM51.537 52.9884C52.9146 52.9884 53.9046 52.2519 53.9076 51.2619C53.9046 50.4985 53.3172 49.8753 52.5836 49.7531V49.7113C53.2218 49.5801 53.678 49.0285 53.681 48.3575C53.678 47.4123 52.7715 46.7145 51.537 46.7145C50.2995 46.7145 49.393 47.4123 49.396 48.3575C49.393 49.0255 49.8433 49.5801 50.4933 49.7113V49.7531C49.7479 49.8753 49.1664 50.4985 49.1694 51.2619C49.1664 52.2519 50.1594 52.9884 51.537 52.9884ZM51.537 52.0402C50.9227 52.0402 50.5112 51.6764 50.5112 51.1605C50.5112 50.6327 50.9436 50.251 51.537 50.251C52.1274 50.251 52.5628 50.6327 52.5628 51.1605C52.5628 51.6794 52.1483 52.0402 51.537 52.0402ZM51.537 49.3117C51.0211 49.3117 50.6544 48.9748 50.6544 48.4917C50.6544 48.0146 51.0152 47.6866 51.537 47.6866C52.0558 47.6866 52.4196 48.0176 52.4196 48.4917C52.4196 48.9748 52.0499 49.3117 51.537 49.3117ZM57.0408 52.9884C58.4005 52.9884 59.3249 52.1028 59.3219 50.8683C59.3249 49.6994 58.5079 48.8585 57.4076 48.8585C56.8708 48.8585 56.4086 49.0821 56.194 49.3833H56.1582L56.3162 47.8536H58.985V46.798H55.2517L54.9624 50.0184L56.1105 50.2242C56.2983 49.9707 56.6621 49.8127 57.0229 49.8127C57.6372 49.8157 58.0785 50.26 58.0785 50.9011C58.0785 51.5362 57.6461 51.9746 57.0408 51.9746C56.5279 51.9746 56.1134 51.6525 56.0836 51.1784H54.8312C54.8551 52.234 55.7765 52.9884 57.0408 52.9884ZM64.8228 46.798H63.6091L62.0973 47.7552V48.9002L63.4958 48.0236H63.5316V52.9049H64.8228V46.798ZM66.5157 52.9049H67.8486L70.3832 47.8685V46.798H66.0983V47.8536H69.0473V47.8953L66.5157 52.9049ZM75.4688 52.9884C76.8405 52.9884 77.8215 52.234 77.8186 51.1903C77.8215 50.4299 77.3385 49.8872 76.4409 49.7739V49.7262C77.1238 49.604 77.5949 49.1209 77.5919 48.4351C77.5949 47.4719 76.751 46.7145 75.4867 46.7145C74.2343 46.7145 73.2921 47.4481 73.2742 48.5037H74.5116C74.5266 48.0385 74.953 47.7373 75.4808 47.7373C76.0026 47.7373 76.3515 48.0534 76.3485 48.5126C76.3515 48.9927 75.9429 49.3177 75.3555 49.3177H74.786V50.2659H75.3555C76.0473 50.2659 76.4797 50.6118 76.4767 51.1039C76.4797 51.5899 76.0622 51.9239 75.4718 51.9239C74.9023 51.9239 74.4759 51.6257 74.452 51.1784H73.1519C73.1728 52.2459 74.127 52.9884 75.4688 52.9884ZM80.9771 52.9884C82.3368 52.9884 83.2612 52.1028 83.2582 50.8683C83.2612 49.6994 82.4442 48.8585 81.3439 48.8585C80.8071 48.8585 80.3449 49.0821 80.1303 49.3833H80.0945L80.2525 47.8536H82.9213V46.798H79.188L78.8987 50.0184L80.0468 50.2242C80.2346 49.9707 80.5984 49.8127 80.9592 49.8127C81.5735 49.8157 82.0148 50.26 82.0148 50.9011C82.0148 51.5362 81.5824 51.9746 80.9771 51.9746C80.4642 51.9746 80.0497 51.6525 80.0199 51.1784H78.7675C78.7914 52.234 79.7128 52.9884 80.9771 52.9884ZM88.4967 53.0391C90.0323 53.0391 90.9597 51.8702 90.9627 49.8574C90.9657 47.8596 90.0264 46.7145 88.4967 46.7145C86.964 46.7145 86.0336 47.8566 86.0306 49.8574C86.0247 51.8642 86.958 53.0361 88.4967 53.0391ZM88.4967 51.9686C87.7959 51.9686 87.3427 51.2649 87.3457 49.8574C87.3486 48.4709 87.7989 47.7731 88.4967 47.7731C89.1914 47.7731 89.6447 48.4709 89.6447 49.8574C89.6477 51.2649 89.1944 51.9686 88.4967 51.9686ZM94.1615 52.9884C95.5391 52.9884 96.5291 52.2519 96.5321 51.2619C96.5291 50.4985 95.9417 49.8753 95.2081 49.7531V49.7113C95.8463 49.5801 96.3025 49.0285 96.3055 48.3575C96.3025 47.4123 95.396 46.7145 94.1615 46.7145C92.924 46.7145 92.0175 47.4123 92.0205 48.3575C92.0175 49.0255 92.4678 49.5801 93.1178 49.7113V49.7531C92.3724 49.8753 91.7909 50.4985 91.7939 51.2619C91.7909 52.2519 92.7839 52.9884 94.1615 52.9884ZM94.1615 52.0402C93.5472 52.0402 93.1357 51.6764 93.1357 51.1605C93.1357 50.6327 93.5681 50.251 94.1615 50.251C94.7519 50.251 95.1873 50.6327 95.1873 51.1605C95.1873 51.6794 94.7728 52.0402 94.1615 52.0402ZM94.1615 49.3117C93.6456 49.3117 93.2789 48.9748 93.2789 48.4917C93.2789 48.0146 93.6397 47.6866 94.1615 47.6866C94.6803 47.6866 95.0441 48.0176 95.0441 48.4917C95.0441 48.9748 94.6744 49.3117 94.1615 49.3117Z" fill="white"/>
</svg>
